HIERARCHY
ROOT hip
{
  OFFSET 0 0 0
  CHANNELS 6 Xposition Yposition Zposition Zrotation Yrotation Xrotation
  JOINT abdomen
  {
    OFFSET 0 20.6881 -0.73152
    CHANNELS 3 Zrotation Xrotation Yrotation
    JOINT chest
    {
      OFFSET 0 11.7043 -0.48768
      CHANNELS 3 Zrotation Xrotation Yrotation
      JOINT neck
      {
        OFFSET 0 22.1894 -2.19456
        CHANNELS 3 Zrotation Xrotation Yrotation
        JOINT head
        {
          OFFSET -0.24384 7.07133 1.2192
          CHANNELS 3 Zrotation Xrotation Yrotation
          JOINT leftEye
          {
            OFFSET 4.14528 8.04674 8.04672
            CHANNELS 3 Zrotation Xrotation Yrotation
            End Site
            {
              OFFSET 1 0 0
            }
          }
          JOINT rightEye
          {
            OFFSET -3.6576 8.04674 8.04672
            CHANNELS 3 Zrotation Xrotation Yrotation
            End Site
            {
              OFFSET 1 0 0
            }
          }
        }
      }
      JOINT rCollar
      {
        OFFSET -2.68224 19.2634 -4.8768
        CHANNELS 3 Zrotation Xrotation Yrotation
        JOINT rShldr
        {
          OFFSET -8.77824 -1.95073 1.46304
          CHANNELS 3 Zrotation Xrotation Yrotation
          JOINT rForeArm
          {
            OFFSET -28.1742 -1.7115 0.48768
            CHANNELS 3 Zrotation Xrotation Yrotation
            JOINT rHand
            {
              OFFSET -22.5879 0.773209 7.07136
              CHANNELS 3 Zrotation Xrotation Yrotation
              JOINT rThumb1
              {
                OFFSET -1.2192 -0.487915 3.41376
                CHANNELS 3 Zrotation Xrotation Yrotation
                JOINT rThumb2
                {
                  OFFSET -3.37035 -0.52449 3.41376
                  CHANNELS 3 Zrotation Xrotation Yrotation
                  End Site
                  {
                    OFFSET -1.78271 -1.18214 1.43049
                  }
                }
              }
              JOINT rIndex1
              {
                OFFSET -7.75947 0.938293 5.60832
                CHANNELS 3 Zrotation Xrotation Yrotation
                JOINT rIndex2
                {
                  OFFSET -2.54057 -0.884171 1.56538
                  CHANNELS 3 Zrotation Xrotation Yrotation
                  End Site
                  {
                    OFFSET -1.62519 -0.234802 1.16502
                  }
                }
              }
              JOINT rMid1
              {
                OFFSET -8.24714 1.18213 3.41376
                CHANNELS 3 Zrotation Xrotation Yrotation
                JOINT rMid2
                {
                  OFFSET -3.10165 -0.590103 1.0647
                  CHANNELS 3 Zrotation Xrotation Yrotation
                  End Site
                  {
                    OFFSET -2.48547 -0.328903 0.83742
                  }
                }
              }
              JOINT rRing1
              {
                OFFSET -8.82822 0.546677 1.51678
                CHANNELS 3 Zrotation Xrotation Yrotation
                JOINT rRing2
                {
                  OFFSET -2.60934 -0.819778 -0.0198488
                  CHANNELS 3 Zrotation Xrotation Yrotation
                  End Site
                  {
                    OFFSET -2.33842 -0.294052 0.168128
                  }
                }
              }
              JOINT rPinky1
              {
                OFFSET -8.27202 -0.0477905 -0.4584
                CHANNELS 3 Zrotation Xrotation Yrotation
                JOINT rPinky2
                {
                  OFFSET -1.82734 -0.647385 -0.700984
                  CHANNELS 3 Zrotation Xrotation Yrotation
                  End Site
                  {
                    OFFSET -1.69225 -0.51767 -0.607171
                  }
                }
              }
            }
          }
        }
      }
      JOINT lCollar
      {
        OFFSET 2.68224 19.2634 -4.8768
        CHANNELS 3 Zrotation Xrotation Yrotation
        JOINT lShldr
        {
          OFFSET 8.77824 -1.95073 1.46304
          CHANNELS 3 Zrotation Xrotation Yrotation
          JOINT lForeArm
          {
            OFFSET 28.1742 -1.7115 0.48768
            CHANNELS 3 Zrotation Xrotation Yrotation
            JOINT lHand
            {
              OFFSET 22.5879 0.773209 7.07136
              CHANNELS 3 Zrotation Xrotation Yrotation
              JOINT lThumb1
              {
                OFFSET 1.2192 -0.487915 3.41376
                CHANNELS 3 Zrotation Xrotation Yrotation
                JOINT lThumb2
                {
                  OFFSET 3.37035 -0.52449 3.41376
                  CHANNELS 3 Zrotation Xrotation Yrotation
                  End Site
                  {
                    OFFSET 1.78271 -1.18214 1.43049
                  }
                }
              }
              JOINT lIndex1
              {
                OFFSET 7.75947 0.938293 5.60832
                CHANNELS 3 Zrotation Xrotation Yrotation
                JOINT lIndex2
                {
                  OFFSET 2.54057 -0.884171 1.56538
                  CHANNELS 3 Zrotation Xrotation Yrotation
                  End Site
                  {
                    OFFSET 1.62519 -0.234802 1.16502
                  }
                }
              }
              JOINT lMid1
              {
                OFFSET 8.24714 1.18213 3.41376
                CHANNELS 3 Zrotation Xrotation Yrotation
                JOINT lMid2
                {
                  OFFSET 3.10165 -0.590103 1.0647
                  CHANNELS 3 Zrotation Xrotation Yrotation
                  End Site
                  {
                    OFFSET 2.48547 -0.328903 0.83742
                  }
                }
              }
              JOINT lRing1
              {
                OFFSET 8.82822 0.546677 1.51678
                CHANNELS 3 Zrotation Xrotation Yrotation
                JOINT lRing2
                {
                  OFFSET 2.60934 -0.819778 -0.0198488
                  CHANNELS 3 Zrotation Xrotation Yrotation
                  End Site
                  {
                    OFFSET 2.33842 -0.294052 0.168128
                  }
                }
              }
              JOINT lPinky1
              {
                OFFSET 8.27202 -0.0477905 -0.4584
                CHANNELS 3 Zrotation Xrotation Yrotation
                JOINT lPinky2
                {
                  OFFSET 1.82734 -0.647385 -0.700984
                  CHANNELS 3 Zrotation Xrotation Yrotation
                  End Site
                  {
                    OFFSET 1.69225 -0.51767 -0.607171
                  }
                }
              }
            }
          }
        }
      }
    }
  }
  JOINT rButtock
  {
    OFFSET -8.77824 4.35084 1.2192
    CHANNELS 3 Zrotation Xrotation Yrotation
    JOINT rThigh
    {
      OFFSET 0 -1.70687 -2.19456
      CHANNELS 3 Zrotation Xrotation Yrotation
      JOINT rShin
      {
        OFFSET 0 -36.8199 0.73152
        CHANNELS 3 Zrotation Xrotation Yrotation
        JOINT rFoot
        {
          OFFSET 0.73152 -45.1104 -5.12064
          CHANNELS 3 Zrotation Xrotation Yrotation
          End Site
          {
            OFFSET -1.1221 -3.69964 12.103
          }
        }
      }
    }
  }
  JOINT lButtock
  {
    OFFSET 8.77824 4.35084 1.2192
    CHANNELS 3 Zrotation Xrotation Yrotation
    JOINT lThigh
    {
      OFFSET 0 -1.70687 -2.19456
      CHANNELS 3 Zrotation Xrotation Yrotation
      JOINT lShin
      {
        OFFSET 0 -36.8199 0.73152
        CHANNELS 3 Zrotation Xrotation Yrotation
        JOINT lFoot
        {
          OFFSET -0.73152 -45.1104 -5.12064
          CHANNELS 3 Zrotation Xrotation Yrotation
          End Site
          {
            OFFSET 1.1221 -3.69964 12.103
          }
        }
      }
    }
  }
}
MOTION
Frames:	6
Frame Time:	0.00833333
-168.474 85.4571 5.12393 0.0 0.0 0.0 1.92989 -0.00172187 0.052385 0.532103 0.00507089 0.0921262 -1.85257e-14 1.59028e-15 -7.20594e-16 -5.51177e-14 1.59028e-14 -2.21614e-15 -0.0 0.0 0.0 -0.0 0.0 0.0 -8.79798e-15 -2.52363e-17 -2.48481e-16 -1.9131e-13 -3.78933e-16 -6.75868e-15 -3.31677e-12 9.78021e-13 -1.17681e-13 -3.78624e-11 -1.06362e-12 -1.49486e-12 -8.93275e-11 -1.8711e-13 -3.48271e-12 -1.54278e-10 -3.18055e-13 -6.02318e-12 -8.93219e-11 -1.8646e-13 -3.49861e-12 7.73091 5.47488 0.417314 -8.9329e-11 -1.87255e-13 -3.48907e-12 2.90554 0.965183 0.102902 -8.93186e-11 -1.87255e-13 -3.48827e-12 10.2786 0.731801 0.0259123 -8.93332e-11 -1.83279e-13 -3.48271e-12 2.22167 -0.733487 -0.20892 -8.99386e-15 -1.96067e-17 -4.47265e-16 -1.95238e-13 -8.07563e-17 -8.94531e-15 -3.3037e-12 -1.00824e-12 -1.04958e-13 -3.78963e-11 9.3563e-13 -1.50758e-12 -8.93621e-11 -1.64219e-13 -3.49543e-12 -1.54307e-10 -2.8943e-13 -6.02954e-12 -8.93652e-11 -1.64196e-13 -3.48589e-12 -7.73091 5.47488 -0.417314 -8.93622e-11 -1.64792e-13 -3.50179e-12 -2.90554 0.965183 -0.102902 -8.9364e-11 -1.64594e-13 -3.49622e-12 -10.2786 0.731801 -0.0259123 -8.93581e-11 -1.61016e-13 -3.50179e-12 -2.22167 -0.733487 0.20892 -2.03217e-16 0.0 -3.88251e-19 1.95709 -7.26115 -0.191863 0.00413483 7.58526 0.107185 -0.518907 -0.330652 0.052065 2.03217e-16 0.0 3.88251e-19 0.976791 -1.92613 0.000867967 0.0089862 -2.0786 0.0740544 0.487753 3.99809 -0.136719
-162.365 85.3133 -3.56464 28.1072 85.0681 29.9713 0.508272 1.61267 1.259 0.935065 -0.679353 0.46068 0.729231 -1.97754 0.626019 -0.233509 1.62419 1.051 -0.0 0.0 0.0 -0.0 0.0 0.0 -1.83788e-14 8.9575e-13 -1.55691e-13 21.8361 9.36535 -0.111094 -5.11718 -2.53697 7.74914 4.2132e-05 -0.14912 -0.0209572 -7.60672e-12 1.49608e-10 -4.80855e-11 -1.27594e-11 2.59e-10 -8.34591e-11 -7.60311e-12 1.49609e-10 -4.80988e-11 7.73091 5.47488 0.417314 -7.60733e-12 1.49608e-10 -4.80892e-11 2.90554 0.965183 0.102902 -7.59849e-12 1.49609e-10 -4.80907e-11 10.2786 0.731801 0.0259123 -7.61004e-12 1.49612e-10 -4.80856e-11 2.22167 -0.733487 -0.20892 -1.85645e-14 8.95754e-13 -1.55903e-13 -21.5582 10.2858 0.12477 5.60558 -2.89172 -8.36179 -0.0370647 4.27979 -0.595473 1.66313e-10 -7.46372e-11 -2.98957e-11 2.87297e-10 -1.29215e-10 -5.45691e-11 1.66306e-10 -7.46349e-11 -2.98825e-11 -7.73091 5.47488 -0.417314 1.66313e-10 -7.46352e-11 -2.98991e-11 -2.90554 0.965183 -0.102902 1.66309e-10 -7.46344e-11 -2.98939e-11 -10.2786 0.731801 -0.0259123 1.66315e-10 -7.46317e-11 -2.98984e-11 -2.22167 -0.733487 0.20892 -2.03217e-16 0.0 -3.88251e-19 -0.936294 -4.54638 -1.40172 0.00540085 7.82375 0.114034 -0.644311 -4.58304 -2.69596 2.03217e-16 0.0 3.88251e-19 2.4563 1.11027 -0.680514 0.00279786 -2.39802 0.0369639 0.8088 0.0392525 5.38635
-162.361 85.3152 -3.69113 33.9067 85.2553 35.7504 -1.07262 3.31506 2.53874 1.36882 -1.40054 0.850641 1.54591 -4.064 1.28955 -0.540351 3.33369 2.16366 -0.0 0.0 0.0 -0.0 0.0 0.0 -2.77335e-14 1.9604e-12 -3.27892e-13 44.963 19.2632 -0.239174 -9.78767 -5.06417 15.9893 -3.47569e-05 -0.311235 -0.0437413 5.62042e-11 3.15762e-10 -8.92112e-11 9.78649e-11 5.46614e-10 -1.54857e-10 5.62057e-11 3.15765e-10 -8.92215e-11 7.73091 5.47488 0.417314 5.62045e-11 3.15764e-10 -8.9212e-11 2.90554 0.965183 0.102902 5.62118e-11 3.15766e-10 -8.9216e-11 10.2786 0.731801 0.0259123 5.62035e-11 3.15768e-10 -8.92114e-11 2.22167 -0.733487 -0.20892 -2.79094e-14 1.9604e-12 -3.28119e-13 -44.4299 21.1371 0.366178 10.699 -5.80198 -17.3946 0.0217501 8.83118 -1.24015 4.61684e-10 -1.67142e-10 -8.48033e-11 7.97205e-10 -2.89282e-10 -1.52841e-10 4.61674e-10 -1.67137e-10 -8.4786e-11 -7.73091 5.47488 -0.417314 4.61684e-10 -1.67137e-10 -8.48035e-11 -2.90554 0.965183 -0.102902 4.61678e-10 -1.67135e-10 -8.47988e-11 -10.2786 0.731801 -0.0259123 4.61685e-10 -1.67134e-10 -8.48019e-11 -2.22167 -0.733487 0.20892 -2.03217e-16 0.0 -3.88251e-19 -3.87487 -1.67778 -2.67627 0.0066803 8.07595 0.121289 -1.22442 -9.04223 -5.65329 2.03217e-16 0.0 3.88251e-19 4.0937 4.31972 -1.40947 -0.00414947 -2.73806 -0.00221059 1.97466 -4.06523 11.2595
-162.32 85.3467 -3.76556 38.3628 85.5898 40.0021 -2.53942 4.83267 3.68385 1.76742 -2.04782 1.19846 2.3179 -5.92979 1.88704 -0.879735 4.86599 3.16313 -0.0 0.0 0.0 -0.0 0.0 0.0 -3.75405e-14 2.6873e-12 -4.66575e-13 65.6296 28.0956 -0.372766 -13.3426 -7.05523 23.4122 -0.000200875 -0.447359 -0.0628732 1.55835e-10 4.49197e-10 -1.37291e-10 2.70277e-10 7.77635e-10 -2.38331e-10 1.55834e-10 4.49201e-10 -1.37299e-10 7.73091 5.47488 0.417314 1.55836e-10 4.49199e-10 -1.3729e-10 2.90554 0.965183 0.102902 1.55842e-10 4.49203e-10 -1.37296e-10 10.2786 0.731801 0.0259123 1.55836e-10 4.49204e-10 -1.37291e-10 2.22167 -0.733487 -0.20892 -3.77059e-14 2.6873e-12 -4.66815e-13 -64.8278 30.8568 0.429023 14.3544 -7.93766 -25.3125 0.161457 12.8338 -1.8271 6.77663e-10 -2.23583e-10 -8.26962e-11 1.1705e-09 -3.87067e-10 -1.51648e-10 6.7765e-10 -2.23576e-10 -8.26756e-11 -7.73091 5.47488 -0.417314 6.77663e-10 -2.23576e-10 -8.26939e-11 -2.90554 0.965183 -0.102902 6.77655e-10 -2.23574e-10 -8.26894e-11 -10.2786 0.731801 -0.0259123 6.77662e-10 -2.23573e-10 -8.26915e-11 -2.22167 -0.733487 0.20892 -2.03217e-16 0.0 -3.88251e-19 -6.37973 0.877225 -3.81173 0.00776 8.30073 0.127762 -2.14144 -12.9678 -8.38136 2.03217e-16 0.0 3.88251e-19 5.63325 7.17872 -2.05904 -0.0108211 -3.03686 -0.0372692 3.72253 -7.55424 16.5798
-162.369 85.3147 -3.68599 33.7561 85.1705 35.6381 -3.57664 5.89669 4.4814 2.05961 -2.51066 1.44028 2.88666 -7.24656 2.31097 -1.17519 5.96144 3.87015 -0.0 0.0 0.0 -0.0 0.0 0.0 -4.84784e-14 2.56982e-12 -5.21462e-13 80.0552 34.2649 -0.482926 -15.5052 -8.23549 28.6348 -0.000329739 -0.518504 -0.072873 3.45015e-10 5.00832e-10 -2.02757e-10 5.97159e-10 8.67175e-10 -3.51994e-10 3.45013e-10 5.00836e-10 -2.02764e-10 7.73091 5.47488 0.417314 3.45016e-10 5.00835e-10 -2.02754e-10 2.90554 0.965183 0.102902 3.45021e-10 5.00839e-10 -2.02761e-10 10.2786 0.731801 0.0259123 3.45017e-10 5.00839e-10 -2.02757e-10 2.22167 -0.733487 -0.20892 -4.86311e-14 2.56982e-12 -5.2171e-13 -78.7217 37.7483 -0.107508 16.2509 -8.92234 -30.2039 0.302813 15.4699 -2.22914 6.9516e-10 -1.89866e-10 6.19477e-11 1.20228e-09 -3.29146e-10 9.8206e-11 6.95146e-10 -1.89859e-10 6.19699e-11 -7.73091 5.47488 -0.417314 6.95162e-10 -1.89859e-10 6.19508e-11 -2.90554 0.965183 -0.102902 6.95152e-10 -1.89857e-10 6.19556e-11 -10.2786 0.731801 -0.0259123 6.9516e-10 -1.89856e-10 6.1954e-11 -2.22167 -0.733487 0.20892 -2.03217e-16 0.0 -3.88251e-19 -8.04243 2.656 -4.59826 0.00846267 8.45696 0.132259 -3.01506 -15.6729 -10.3582 2.03217e-16 0.0 3.88251e-19 6.77134 9.16607 -2.49306 -0.0159146 -3.23254 -0.0619973 5.32517 -9.84338 20.3364
-162.373 85.3145 -3.71038 35.0883 85.3869 36.9748 -3.94209 6.33447 4.7882 2.19474 -2.72584 1.5345 3.12495 -7.79827 2.48391 -1.34906 6.4607 4.15932 -0.0 0.0 0.0 -0.0 0.0 0.0 -6.6415e-14 7.47599e-13 -4.40306e-13 85.6922 36.7098 -0.531238 -16.2885 -8.64381 30.694 -0.00030048 -0.493669 -0.0693823 7.50232e-10 4.16284e-10 -3.005e-10 1.29684e-09 7.2122e-10 -5.218e-10 7.50232e-10 4.16288e-10 -3.00506e-10 7.73091 5.47488 0.417314 7.50234e-10 4.16286e-10 -3.00496e-10 2.90554 0.965183 0.102902 7.50239e-10 4.16289e-10 -3.00503e-10 10.2786 0.731801 0.0259123 7.50234e-10 4.16289e-10 -3.00499e-10 2.22167 -0.733487 -0.20892 -6.65503e-14 7.47599e-13 -4.4056e-13 -83.2283 40.7052 -1.78747 16.2908 -8.71882 -30.5552 0.348808 16.0819 -2.32592 3.70754e-10 1.36385e-11 5.16756e-10 6.46541e-10 2.18604e-11 8.88049e-10 3.70741e-10 1.36431e-11 5.16777e-10 -7.73091 5.47488 -0.417314 3.70756e-10 1.36433e-11 5.16757e-10 -2.90554 0.965183 -0.102902 3.70746e-10 1.36454e-11 5.16763e-10 -10.2786 0.731801 -0.0259123 3.70755e-10 1.36475e-11 5.16761e-10 -2.22167 -0.733487 0.20892 -2.03217e-16 0.0 -3.88251e-19 -8.62636 3.354 -4.88467 0.00867528 8.51561 0.133931 -3.4195 -16.7536 -11.159 2.03217e-16 0.0 3.88251e-19 7.2822 9.93601 -2.61531 -0.0184444 -3.2833 -0.0723348 6.02931 -10.716 21.7651
